<?xml version="1.0" encoding="UTF-8" standalone="no"?>
<!DOCTYPE svg PUBLIC "-//W3C//DTD SVG 1.1//EN"
 "http://www.w3.org/Graphics/SVG/1.1/DTD/svg11.dtd">
<!-- Generated by graphviz version 2.38.0 (20140413.2041)
 -->
<!-- Title: G Pages: 1 -->
<svg width="224pt" height="406pt"
 viewBox="0.00 0.00 224.00 406.21" xmlns="http://www.w3.org/2000/svg" xmlns:xlink="http://www.w3.org/1999/xlink">
<g id="graph0" class="graph" transform="scale(1 1) rotate(0) translate(4 402.214)">
<title>G</title>
<polygon fill="white" stroke="none" points="-4,4 -4,-402.214 220,-402.214 220,4 -4,4"/>
<g id="clust1" class="cluster"><title>cluster_0</title>
<polygon fill="lightgrey" stroke="lightgrey" points="8,-64.2139 8,-354.214 98,-354.214 98,-64.2139 8,-64.2139"/>
<text text-anchor="middle" x="53" y="-339.014" font-family="Times,serif" font-size="14.00">process #1</text>
</g>
<g id="clust2" class="cluster"><title>cluster_1</title>
<polygon fill="none" stroke="blue" points="133,-64.2139 133,-354.214 208,-354.214 208,-64.2139 133,-64.2139"/>
<text text-anchor="middle" x="170.5" y="-339.014" font-family="Times,serif" font-size="14.00">process #2</text>
</g>
<!-- a0 -->
<g id="node1" class="node"><title>a0</title>
<ellipse fill="white" stroke="white" cx="63" cy="-306.214" rx="27" ry="18"/>
<text text-anchor="middle" x="63" y="-302.014" font-family="Times,serif" font-size="14.00">a0</text>
</g>
<!-- a1 -->
<g id="node2" class="node"><title>a1</title>
<ellipse fill="white" stroke="white" cx="63" cy="-234.214" rx="27" ry="18"/>
<text text-anchor="middle" x="63" y="-230.014" font-family="Times,serif" font-size="14.00">a1</text>
</g>
<!-- a0&#45;&gt;a1 -->
<g id="edge1" class="edge"><title>a0&#45;&gt;a1</title>
<path fill="none" stroke="black" d="M63,-287.91C63,-280.197 63,-270.926 63,-262.326"/>
<polygon fill="black" stroke="black" points="66.5001,-262.318 63,-252.318 59.5001,-262.318 66.5001,-262.318"/>
</g>
<!-- a2 -->
<g id="node3" class="node"><title>a2</title>
<ellipse fill="white" stroke="white" cx="63" cy="-162.214" rx="27" ry="18"/>
<text text-anchor="middle" x="63" y="-158.014" font-family="Times,serif" font-size="14.00">a2</text>
</g>
<!-- a1&#45;&gt;a2 -->
<g id="edge2" class="edge"><title>a1&#45;&gt;a2</title>
<path fill="none" stroke="black" d="M63,-215.91C63,-208.197 63,-198.926 63,-190.326"/>
<polygon fill="black" stroke="black" points="66.5001,-190.318 63,-180.318 59.5001,-190.318 66.5001,-190.318"/>
</g>
<!-- b3 -->
<g id="node8" class="node"><title>b3</title>
<ellipse fill="lightgrey" stroke="black" cx="168" cy="-90.2139" rx="27" ry="18"/>
<text text-anchor="middle" x="168" y="-86.0139" font-family="Times,serif" font-size="14.00">b3</text>
</g>
<!-- a1&#45;&gt;b3 -->
<g id="edge9" class="edge"><title>a1&#45;&gt;b3</title>
<path fill="none" stroke="black" d="M74.4367,-217.747C92.7409,-192.993 128.75,-144.295 150.366,-115.061"/>
<polygon fill="black" stroke="black" points="153.446,-116.783 156.577,-106.662 147.818,-112.621 153.446,-116.783"/>
</g>
<!-- a3 -->
<g id="node4" class="node"><title>a3</title>
<ellipse fill="white" stroke="white" cx="63" cy="-90.2139" rx="27" ry="18"/>
<text text-anchor="middle" x="63" y="-86.0139" font-family="Times,serif" font-size="14.00">a3</text>
</g>
<!-- a2&#45;&gt;a3 -->
<g id="edge3" class="edge"><title>a2&#45;&gt;a3</title>
<path fill="none" stroke="black" d="M63,-143.91C63,-136.197 63,-126.926 63,-118.326"/>
<polygon fill="black" stroke="black" points="66.5001,-118.318 63,-108.318 59.5001,-118.318 66.5001,-118.318"/>
</g>
<!-- a3&#45;&gt;a0 -->
<g id="edge11" class="edge"><title>a3&#45;&gt;a0</title>
<path fill="none" stroke="black" d="M49.2496,-106.145C41.0392,-116.114 31.381,-129.967 27,-144.214 12.8916,-190.094 12.8916,-206.334 27,-252.214 30.2858,-262.899 36.5399,-273.363 42.9254,-282.132"/>
<polygon fill="black" stroke="black" points="40.354,-284.528 49.2496,-290.283 45.8844,-280.236 40.354,-284.528"/>
</g>
<!-- end -->
<g id="node10" class="node"><title>end</title>
<polygon fill="none" stroke="black" points="133.215,-36.3214 96.7855,-36.3214 96.7855,0.107569 133.215,0.107569 133.215,-36.3214"/>
<polyline fill="none" stroke="black" points="108.785,-36.3214 96.7855,-24.3214 "/>
<polyline fill="none" stroke="black" points="96.7855,-11.8924 108.785,0.107569 "/>
<polyline fill="none" stroke="black" points="121.215,0.107569 133.215,-11.8924 "/>
<polyline fill="none" stroke="black" points="133.215,-24.3214 121.215,-36.3214 "/>
<text text-anchor="middle" x="115" y="-13.9069" font-family="Times,serif" font-size="14.00">end</text>
</g>
<!-- a3&#45;&gt;end -->
<g id="edge12" class="edge"><title>a3&#45;&gt;end</title>
<path fill="none" stroke="black" d="M74.5405,-73.6549C80.8351,-65.1683 88.7878,-54.4466 95.9731,-44.7592"/>
<polygon fill="black" stroke="black" points="98.8828,-46.7114 102.029,-36.5945 93.2605,-42.5412 98.8828,-46.7114"/>
</g>
<!-- b0 -->
<g id="node5" class="node"><title>b0</title>
<ellipse fill="lightgrey" stroke="black" cx="170" cy="-306.214" rx="27" ry="18"/>
<text text-anchor="middle" x="170" y="-302.014" font-family="Times,serif" font-size="14.00">b0</text>
</g>
<!-- b1 -->
<g id="node6" class="node"><title>b1</title>
<ellipse fill="lightgrey" stroke="black" cx="171" cy="-234.214" rx="27" ry="18"/>
<text text-anchor="middle" x="171" y="-230.014" font-family="Times,serif" font-size="14.00">b1</text>
</g>
<!-- b0&#45;&gt;b1 -->
<g id="edge4" class="edge"><title>b0&#45;&gt;b1</title>
<path fill="none" stroke="black" d="M170.247,-287.91C170.357,-280.197 170.49,-270.926 170.613,-262.326"/>
<polygon fill="black" stroke="black" points="174.112,-262.367 170.756,-252.318 167.113,-262.267 174.112,-262.367"/>
</g>
<!-- b2 -->
<g id="node7" class="node"><title>b2</title>
<ellipse fill="lightgrey" stroke="black" cx="173" cy="-162.214" rx="27" ry="18"/>
<text text-anchor="middle" x="173" y="-158.014" font-family="Times,serif" font-size="14.00">b2</text>
</g>
<!-- b1&#45;&gt;b2 -->
<g id="edge5" class="edge"><title>b1&#45;&gt;b2</title>
<path fill="none" stroke="black" d="M171.494,-215.91C171.715,-208.197 171.98,-198.926 172.225,-190.326"/>
<polygon fill="black" stroke="black" points="175.724,-190.414 172.511,-180.318 168.727,-190.214 175.724,-190.414"/>
</g>
<!-- b2&#45;&gt;a3 -->
<g id="edge10" class="edge"><title>b2&#45;&gt;a3</title>
<path fill="none" stroke="black" d="M153.839,-149.021C136.331,-137.879 110.241,-121.276 90.5068,-108.718"/>
<polygon fill="black" stroke="black" points="92.2567,-105.683 81.941,-103.267 88.4985,-111.589 92.2567,-105.683"/>
</g>
<!-- b2&#45;&gt;b3 -->
<g id="edge6" class="edge"><title>b2&#45;&gt;b3</title>
<path fill="none" stroke="black" d="M171.764,-143.91C171.213,-136.197 170.551,-126.926 169.937,-118.326"/>
<polygon fill="black" stroke="black" points="173.425,-118.043 169.222,-108.318 166.443,-118.542 173.425,-118.043"/>
</g>
<!-- b3&#45;&gt;end -->
<g id="edge13" class="edge"><title>b3&#45;&gt;end</title>
<path fill="none" stroke="black" d="M156.238,-73.6549C149.822,-65.1683 141.716,-54.4466 134.393,-44.7592"/>
<polygon fill="black" stroke="black" points="137.043,-42.4608 128.22,-36.5945 131.459,-46.6822 137.043,-42.4608"/>
</g>
<!-- start -->
<g id="node9" class="node"><title>start</title>
<polygon fill="none" stroke="black" points="116,-398.214 80.3482,-380.214 116,-362.214 151.652,-380.214 116,-398.214"/>
<polyline fill="none" stroke="black" points="91.0603,-385.622 91.0603,-374.805 "/>
<polyline fill="none" stroke="black" points="105.288,-367.622 126.712,-367.622 "/>
<polyline fill="none" stroke="black" points="140.94,-374.805 140.94,-385.622 "/>
<polyline fill="none" stroke="black" points="126.712,-392.805 105.288,-392.805 "/>
<text text-anchor="middle" x="116" y="-376.014" font-family="Times,serif" font-size="14.00">start</text>
</g>
<!-- start&#45;&gt;a0 -->
<g id="edge7" class="edge"><title>start&#45;&gt;a0</title>
<path fill="none" stroke="black" d="M106.768,-366.672C99.513,-356.816 89.1994,-342.806 80.4061,-330.86"/>
<polygon fill="black" stroke="black" points="83.0842,-328.594 74.3373,-322.615 77.4468,-332.744 83.0842,-328.594"/>
</g>
<!-- start&#45;&gt;b0 -->
<g id="edge8" class="edge"><title>start&#45;&gt;b0</title>
<path fill="none" stroke="black" d="M125.406,-366.672C132.798,-356.816 143.306,-342.806 152.266,-330.86"/>
<polygon fill="black" stroke="black" points="155.249,-332.716 158.449,-322.615 149.649,-328.516 155.249,-332.716"/>
</g>
</g>
</svg>
