<?xml version="1.0" encoding="UTF-8" standalone="no"?>
<!DOCTYPE svg PUBLIC "-//W3C//DTD SVG 1.1//EN"
 "http://www.w3.org/Graphics/SVG/1.1/DTD/svg11.dtd">
<!-- Generated by graphviz version 2.38.0 (20140413.2041)
 -->
<!-- Title: ER Pages: 1 -->
<svg width="355pt" height="440pt"
 viewBox="0.00 0.00 355.04 439.60" xmlns="http://www.w3.org/2000/svg" xmlns:xlink="http://www.w3.org/1999/xlink">
<g id="graph0" class="graph" transform="scale(1 1) rotate(0) translate(190.201 182.533)">
<title>ER</title>
<polygon fill="white" stroke="none" points="-190.201,257.07 -190.201,-182.533 164.837,-182.533 164.837,257.07 -190.201,257.07"/>
<text text-anchor="middle" x="-12.6821" y="225.07" font-family="Times,serif" font-size="20.00">Entity Relation Diagram</text>
<text text-anchor="middle" x="-12.6821" y="245.07" font-family="Times,serif" font-size="20.00">drawn by NEATO</text>
<!-- course -->
<g id="node1" class="node"><title>course</title>
<polygon fill="none" stroke="black" points="-62.2515,-39.6153 -116.251,-39.6153 -116.251,-3.61533 -62.2515,-3.61533 -62.2515,-39.6153"/>
<text text-anchor="middle" x="-89.2515" y="-17.4153" font-family="Times,serif" font-size="14.00">course</text>
</g>
<!-- C&#45;I -->
<g id="node10" class="node"><title>C&#45;I</title>
<polygon fill="lightgrey" stroke="lightgrey" points="-43.5188,-110.778 -74.4479,-92.7777 -43.5188,-74.7777 -12.5897,-92.7777 -43.5188,-110.778"/>
<text text-anchor="middle" x="-43.5188" y="-88.5777" font-family="Times,serif" font-size="14.00">C&#45;I</text>
</g>
<!-- course&#45;&#45;C&#45;I -->
<g id="edge3" class="edge"><title>course&#45;&#45;C&#45;I</title>
<path fill="none" stroke="black" d="M-77.4742,-39.9414C-69.5345,-52.2959 -59.2415,-68.3124 -52.0788,-79.4579"/>
<text text-anchor="middle" x="-68.2765" y="-62.4996" font-family="Times,serif" font-size="14.00">n</text>
</g>
<!-- institute -->
<g id="node2" class="node"><title>institute</title>
<polygon fill="none" stroke="black" points="69.4775,-110.261 8.25663,-110.261 8.25663,-74.2607 69.4775,-74.2607 69.4775,-110.261"/>
<text text-anchor="middle" x="38.8671" y="-88.0607" font-family="Times,serif" font-size="14.00">institute</text>
</g>
<!-- name1 -->
<g id="node5" class="node"><title>name1</title>
<ellipse fill="none" stroke="black" cx="78.0924" cy="-160.533" rx="29.0172" ry="18"/>
<text text-anchor="middle" x="78.0924" y="-156.333" font-family="Times,serif" font-size="14.00">name</text>
</g>
<!-- institute&#45;&#45;name1 -->
<g id="edge5" class="edge"><title>institute&#45;&#45;name1</title>
<path fill="none" stroke="black" d="M49.3787,-110.556C55.1883,-120.668 62.3667,-133.162 68.0927,-143.128"/>
</g>
<!-- S&#45;I -->
<g id="node12" class="node"><title>S&#45;I</title>
<polygon fill="lightgrey" stroke="lightgrey" points="75.2316,-36.6155 45.5747,-18.6155 75.2316,-0.615543 104.888,-18.6155 75.2316,-36.6155"/>
<text text-anchor="middle" x="75.2316" y="-14.4155" font-family="Times,serif" font-size="14.00">S&#45;I</text>
</g>
<!-- institute&#45;&#45;S&#45;I -->
<g id="edge6" class="edge"><title>institute&#45;&#45;S&#45;I</title>
<path fill="none" stroke="black" d="M47.8561,-74.0563C54.1658,-61.2779 62.4799,-44.4401 68.2833,-32.6871"/>
<text text-anchor="middle" x="54.5697" y="-56.1717" font-family="Times,serif" font-size="14.00">1</text>
</g>
<!-- student -->
<g id="node3" class="node"><title>student</title>
<polygon fill="none" stroke="black" points="76.4393,43.6574 19.553,43.6574 19.553,79.6574 76.4393,79.6574 76.4393,43.6574"/>
<text text-anchor="middle" x="47.9962" y="65.8574" font-family="Times,serif" font-size="14.00">student</text>
</g>
<!-- name2 -->
<g id="node6" class="node"><title>name2</title>
<ellipse fill="none" stroke="black" cx="131.58" cy="63.7593" rx="29.0172" ry="18"/>
<text text-anchor="middle" x="131.58" y="67.9593" font-family="Times,serif" font-size="14.00">name</text>
</g>
<!-- student&#45;&#45;name2 -->
<g id="edge9" class="edge"><title>student&#45;&#45;name2</title>
<path fill="none" stroke="black" d="M76.2938,62.369C84.6291,62.5786 93.7667,62.8084 102.17,63.0197"/>
</g>
<!-- grade -->
<g id="node8" class="node"><title>grade</title>
<ellipse fill="none" stroke="black" cx="91.6815" cy="129.48" rx="29.9931" ry="18"/>
<text text-anchor="middle" x="91.6815" y="133.68" font-family="Times,serif" font-size="14.00">grade</text>
</g>
<!-- student&#45;&#45;grade -->
<g id="edge8" class="edge"><title>student&#45;&#45;grade</title>
<path fill="none" stroke="black" d="M59.703,79.8327C66.2742,90.0346 74.4179,102.678 80.8426,112.652"/>
</g>
<!-- number -->
<g id="node9" class="node"><title>number</title>
<ellipse fill="none" stroke="black" cx="16.1035" cy="139.07" rx="37.2421" ry="18"/>
<text text-anchor="middle" x="16.1035" y="143.27" font-family="Times,serif" font-size="14.00">number</text>
</g>
<!-- student&#45;&#45;number -->
<g id="edge10" class="edge"><title>student&#45;&#45;number</title>
<path fill="none" stroke="black" d="M40.438,80.0032C35.2804,92.5223 28.4861,109.014 23.3878,121.389"/>
</g>
<!-- S&#45;C -->
<g id="node11" class="node"><title>S&#45;C</title>
<polygon fill="lightgrey" stroke="lightgrey" points="-34.4003,23.7478 -67.9127,41.7478 -34.4003,59.7478 -0.887986,41.7478 -34.4003,23.7478"/>
<text text-anchor="middle" x="-34.4003" y="45.9478" font-family="Times,serif" font-size="14.00">S&#45;C</text>
</g>
<!-- student&#45;&#45;S&#45;C -->
<g id="edge11" class="edge"><title>student&#45;&#45;S&#45;C</title>
<path fill="none" stroke="black" d="M19.64,54.8057C9.58483,52.376 -1.60429,49.6724 -11.181,47.3584"/>
<text text-anchor="middle" x="9.6743" y="48.282" font-family="Times,serif" font-size="14.00">m</text>
</g>
<!-- name0 -->
<g id="node4" class="node"><title>name0</title>
<ellipse fill="none" stroke="black" cx="-153.18" cy="-70.8936" rx="29.0172" ry="18"/>
<text text-anchor="middle" x="-153.18" y="-66.6936" font-family="Times,serif" font-size="14.00">name</text>
</g>
<!-- name0&#45;&#45;course -->
<g id="edge1" class="edge"><title>name0&#45;&#45;course</title>
<path fill="none" stroke="black" d="M-134.689,-56.6403C-127.904,-51.41 -120.127,-45.4155 -112.948,-39.8816"/>
</g>
<!-- code -->
<g id="node7" class="node"><title>code</title>
<ellipse fill="none" stroke="black" cx="-159.201" cy="20.9806" rx="27" ry="18"/>
<text text-anchor="middle" x="-159.201" y="25.1806" font-family="Times,serif" font-size="14.00">code</text>
</g>
<!-- code&#45;&#45;course -->
<g id="edge2" class="edge"><title>code&#45;&#45;course</title>
<path fill="none" stroke="black" d="M-138.969,8.66012C-131.948,4.38481 -123.957,-0.481248 -116.467,-5.04276"/>
</g>
<!-- C&#45;I&#45;&#45;institute -->
<g id="edge4" class="edge"><title>C&#45;I&#45;&#45;institute</title>
<path fill="none" stroke="black" d="M-12.8413,-92.5852C-5.97898,-92.5421 1.30063,-92.4964 8.16401,-92.4534"/>
<text text-anchor="middle" x="-5.83866" y="-95.3193" font-family="Times,serif" font-size="14.00">1</text>
</g>
<!-- S&#45;C&#45;&#45;course -->
<g id="edge12" class="edge"><title>S&#45;C&#45;&#45;course</title>
<path fill="none" stroke="black" d="M-45.2372,29.2293C-53.3547,19.8521 -64.578,6.8871 -73.6594,-3.60366"/>
<text text-anchor="middle" x="-62.9483" y="10.0128" font-family="Times,serif" font-size="14.00">n</text>
</g>
<!-- S&#45;I&#45;&#45;student -->
<g id="edge7" class="edge"><title>S&#45;I&#45;&#45;student</title>
<path fill="none" stroke="black" d="M70.1088,-3.51681C65.5785,9.83556 58.9599,29.3433 54.1449,43.5347"/>
<text text-anchor="middle" x="58.6269" y="17.2089" font-family="Times,serif" font-size="14.00">n</text>
</g>
</g>
</svg>
