<?xml version="1.0" encoding="UTF-8" standalone="no"?>
<!DOCTYPE svg PUBLIC "-//W3C//DTD SVG 1.1//EN"
 "http://www.w3.org/Graphics/SVG/1.1/DTD/svg11.dtd">
<!-- Generated by graphviz version 2.38.0 (20140413.2041)
 -->
<!-- Title: TrafficLights Pages: 1 -->
<svg width="344pt" height="457pt"
 viewBox="0.00 0.00 343.61 457.09" xmlns="http://www.w3.org/2000/svg" xmlns:xlink="http://www.w3.org/1999/xlink">
<g id="graph0" class="graph" transform="scale(1 1) rotate(0) translate(172.173 212.511)">
<title>TrafficLights</title>
<polygon fill="white" stroke="none" points="-172.173,244.582 -172.173,-212.511 171.438,-212.511 171.438,244.582 -172.173,244.582"/>
<text text-anchor="middle" x="-0.367471" y="222.182" font-family="Times,serif" font-size="12.00">PetriNet Model TrafficLights</text>
<text text-anchor="middle" x="-0.367471" y="234.182" font-family="Times,serif" font-size="12.00">Extracted from ConceptBase and layed out by Graphviz</text>
<!-- gy2 -->
<g id="node1" class="node"><title>gy2</title>
<polygon fill="none" stroke="black" points="-54.565,158.578 -108.565,158.578 -108.565,194.578 -54.565,194.578 -54.565,158.578"/>
<text text-anchor="middle" x="-81.565" y="180.778" font-family="Times,serif" font-size="14.00">gy2</text>
</g>
<!-- yellow2 -->
<g id="node8" class="node"><title>yellow2</title>
<ellipse fill="none" stroke="black" cx="-135.673" cy="111.998" rx="32.5" ry="32.5"/>
<text text-anchor="middle" x="-135.673" y="116.198" font-family="Times,serif" font-size="14.00">yellow2</text>
</g>
<!-- gy2&#45;&gt;yellow2 -->
<g id="edge1" class="edge"><title>gy2&#45;&gt;yellow2</title>
<path fill="none" stroke="black" d="M-96.9254,158.245C-100.448,154.04 -104.298,149.445 -108.161,144.835"/>
<polygon fill="black" stroke="black" points="-110.878,147.041 -114.618,137.128 -105.513,142.546 -110.878,147.041"/>
</g>
<!-- yr2 -->
<g id="node2" class="node"><title>yr2</title>
<polygon fill="none" stroke="black" points="-77.0603,19.493 -131.06,19.493 -131.06,55.493 -77.0603,55.493 -77.0603,19.493"/>
<text text-anchor="middle" x="-104.06" y="41.693" font-family="Times,serif" font-size="14.00">yr2</text>
</g>
<!-- red2 -->
<g id="node9" class="node"><title>red2</title>
<ellipse fill="none" stroke="black" cx="-32.7823" cy="73.6233" rx="32.5" ry="32.5"/>
<text text-anchor="middle" x="-32.7823" y="77.8233" font-family="Times,serif" font-size="14.00">red2</text>
</g>
<!-- yr2&#45;&gt;red2 -->
<g id="edge4" class="edge"><title>yr2&#45;&gt;red2</title>
<path fill="none" stroke="black" d="M-76.7062,51.3586C-74.8807,52.2839 -73.0244,53.2249 -71.1581,54.1709"/>
<polygon fill="black" stroke="black" points="-69.1752,51.252 -61.8381,58.8951 -72.3401,57.4957 -69.1752,51.252"/>
</g>
<!-- safe1 -->
<g id="node11" class="node"><title>safe1</title>
<ellipse fill="none" stroke="black" cx="-98.4451" cy="-44.9541" rx="32.5" ry="32.5"/>
<text text-anchor="middle" x="-98.4451" y="-40.7541" font-family="Times,serif" font-size="14.00">safe1</text>
</g>
<!-- yr2&#45;&gt;safe1 -->
<g id="edge3" class="edge"><title>yr2&#45;&gt;safe1</title>
<path fill="none" stroke="black" d="M-102.814,19.1953C-102.379,12.8027 -101.87,5.3316 -101.356,-2.20752"/>
<polygon fill="black" stroke="black" points="-104.831,-2.69638 -100.66,-12.4354 -97.8475,-2.22067 -104.831,-2.69638"/>
</g>
<!-- rg2 -->
<g id="node3" class="node"><title>rg2</title>
<polygon fill="none" stroke="black" points="67.8303,86.2874 13.8303,86.2874 13.8303,122.287 67.8303,122.287 67.8303,86.2874"/>
<text text-anchor="middle" x="40.8303" y="108.487" font-family="Times,serif" font-size="14.00">rg2</text>
</g>
<!-- green2 -->
<g id="node7" class="node"><title>green2</title>
<ellipse fill="none" stroke="black" cx="2.80825" cy="176.082" rx="32.5" ry="32.5"/>
<text text-anchor="middle" x="2.80825" y="180.282" font-family="Times,serif" font-size="14.00">green2</text>
</g>
<!-- rg2&#45;&gt;green2 -->
<g id="edge2" class="edge"><title>rg2&#45;&gt;green2</title>
<path fill="none" stroke="black" d="M31.2357,122.404C28.6707,127.248 25.7998,132.669 22.8952,138.153"/>
<polygon fill="black" stroke="black" points="25.7966,140.153 18.0234,147.352 19.6106,136.877 25.7966,140.153"/>
</g>
<!-- gy1 -->
<g id="node4" class="node"><title>gy1</title>
<polygon fill="none" stroke="black" points="107.187,-195.184 53.1875,-195.184 53.1875,-159.184 107.187,-159.184 107.187,-195.184"/>
<text text-anchor="middle" x="80.1875" y="-172.984" font-family="Times,serif" font-size="14.00">gy1</text>
</g>
<!-- yellow1 -->
<g id="node13" class="node"><title>yellow1</title>
<ellipse fill="none" stroke="black" cx="134.938" cy="-112.993" rx="32.5" ry="32.5"/>
<text text-anchor="middle" x="134.938" y="-108.793" font-family="Times,serif" font-size="14.00">yellow1</text>
</g>
<!-- gy1&#45;&gt;yellow1 -->
<g id="edge9" class="edge"><title>gy1&#45;&gt;yellow1</title>
<path fill="none" stroke="black" d="M95.7304,-158.961C99.2949,-154.782 103.191,-150.214 107.099,-145.632"/>
<polygon fill="black" stroke="black" points="109.806,-147.851 113.633,-137.972 104.48,-143.309 109.806,-147.851"/>
</g>
<!-- yr1 -->
<g id="node5" class="node"><title>yr1</title>
<polygon fill="none" stroke="black" points="132.171,-55.4357 78.1706,-55.4357 78.1706,-19.4357 132.171,-19.4357 132.171,-55.4357"/>
<text text-anchor="middle" x="105.171" y="-33.2357" font-family="Times,serif" font-size="14.00">yr1</text>
</g>
<!-- safe2 -->
<g id="node10" class="node"><title>safe2</title>
<ellipse fill="none" stroke="black" cx="98.8837" cy="45.1638" rx="32.5" ry="32.5"/>
<text text-anchor="middle" x="98.8837" y="49.3638" font-family="Times,serif" font-size="14.00">safe2</text>
</g>
<!-- yr1&#45;&gt;safe2 -->
<g id="edge11" class="edge"><title>yr1&#45;&gt;safe2</title>
<path fill="none" stroke="black" d="M103.775,-19.1042C103.282,-12.627 102.705,-5.0446 102.124,2.59573"/>
<polygon fill="black" stroke="black" points="105.612,2.8795 101.363,12.585 98.6325,2.34819 105.612,2.8795"/>
</g>
<!-- red1 -->
<g id="node14" class="node"><title>red1</title>
<ellipse fill="none" stroke="black" cx="33.858" cy="-73.1884" rx="32.5" ry="32.5"/>
<text text-anchor="middle" x="33.858" y="-68.9884" font-family="Times,serif" font-size="14.00">red1</text>
</g>
<!-- yr1&#45;&gt;red1 -->
<g id="edge12" class="edge"><title>yr1&#45;&gt;red1</title>
<path fill="none" stroke="black" d="M77.8032,-51.1564C75.9768,-52.0721 74.1196,-53.0032 72.2524,-53.9393"/>
<polygon fill="black" stroke="black" points="70.2986,-51.0035 62.9278,-58.6142 73.4359,-57.2611 70.2986,-51.0035"/>
</g>
<!-- rg1 -->
<g id="node6" class="node"><title>rg1</title>
<polygon fill="none" stroke="black" points="-13.0676,-121.46 -67.0676,-121.46 -67.0676,-85.46 -13.0676,-85.46 -13.0676,-121.46"/>
<text text-anchor="middle" x="-40.0676" y="-99.26" font-family="Times,serif" font-size="14.00">rg1</text>
</g>
<!-- green1 -->
<g id="node12" class="node"><title>green1</title>
<ellipse fill="none" stroke="black" cx="-4.08305" cy="-176.011" rx="32.5" ry="32.5"/>
<text text-anchor="middle" x="-4.08305" y="-171.811" font-family="Times,serif" font-size="14.00">green1</text>
</g>
<!-- rg1&#45;&gt;green1 -->
<g id="edge10" class="edge"><title>rg1&#45;&gt;green1</title>
<path fill="none" stroke="black" d="M-30.9872,-121.768C-28.5863,-126.608 -25.9022,-132.02 -23.1842,-137.5"/>
<polygon fill="black" stroke="black" points="-26.2011,-139.294 -18.6221,-146.698 -19.93,-136.184 -26.2011,-139.294"/>
</g>
<!-- green2&#45;&gt;gy2 -->
<g id="edge6" class="edge"><title>green2&#45;&gt;gy2</title>
<path fill="none" stroke="black" d="M-30.0542,176.275C-34.7088,176.303 -39.5227,176.331 -44.2538,176.359"/>
<polygon fill="black" stroke="black" points="-44.3639,179.86 -54.3843,176.418 -44.4051,172.86 -44.3639,179.86"/>
</g>
<!-- yellow2&#45;&gt;yr2 -->
<g id="edge7" class="edge"><title>yellow2&#45;&gt;yr2</title>
<path fill="none" stroke="black" d="M-122.815,81.694C-120.465,76.1545 -118.024,70.4025 -115.711,64.9516"/>
<polygon fill="black" stroke="black" points="-118.861,63.4147 -111.733,55.5762 -112.417,66.1489 -118.861,63.4147"/>
</g>
<!-- red2&#45;&gt;rg2 -->
<g id="edge8" class="edge"><title>red2&#45;&gt;rg2</title>
<path fill="none" stroke="black" d="M-2.41626,86.2726C-0.292477,87.1573 1.86083,88.0542 4.01419,88.9512"/>
<polygon fill="black" stroke="black" points="5.47883,85.7698 13.3641,92.846 2.78706,92.2316 5.47883,85.7698"/>
</g>
<!-- safe2&#45;&gt;rg2 -->
<g id="edge5" class="edge"><title>safe2&#45;&gt;rg2</title>
<path fill="none" stroke="black" d="M75.9395,68.531C72.6414,71.8899 69.2336,75.3605 65.897,78.7586"/>
<polygon fill="black" stroke="black" points="68.28,81.3273 58.7764,86.0105 63.2853,76.4229 68.28,81.3273"/>
</g>
<!-- safe1&#45;&gt;rg1 -->
<g id="edge13" class="edge"><title>safe1&#45;&gt;rg1</title>
<path fill="none" stroke="black" d="M-75.3728,-68.0772C-72.0563,-71.401 -68.6295,-74.8353 -65.2742,-78.1979"/>
<polygon fill="black" stroke="black" points="-67.6548,-80.7673 -58.1139,-85.374 -62.6996,-75.823 -67.6548,-80.7673"/>
</g>
<!-- green1&#45;&gt;gy1 -->
<g id="edge14" class="edge"><title>green1&#45;&gt;gy1</title>
<path fill="none" stroke="black" d="M28.7394,-176.468C33.3883,-176.533 38.1964,-176.599 42.9217,-176.665"/>
<polygon fill="black" stroke="black" points="42.9921,-180.166 53.0399,-176.806 43.0896,-173.167 42.9921,-180.166"/>
</g>
<!-- yellow1&#45;&gt;yr1 -->
<g id="edge15" class="edge"><title>yellow1&#45;&gt;yr1</title>
<path fill="none" stroke="black" d="M123.002,-82.6963C120.681,-76.8048 118.26,-70.6604 115.978,-64.8677"/>
<polygon fill="black" stroke="black" points="119.232,-63.5786 112.31,-55.5576 112.719,-66.1445 119.232,-63.5786"/>
</g>
<!-- red1&#45;&gt;rg1 -->
<g id="edge16" class="edge"><title>red1&#45;&gt;rg1</title>
<path fill="none" stroke="black" d="M3.36281,-85.6758C1.08085,-86.6102 -1.23506,-87.5585 -3.54865,-88.5059"/>
<polygon fill="black" stroke="black" points="-5.02582,-85.3287 -12.9537,-92.3572 -2.37315,-91.8066 -5.02582,-85.3287"/>
</g>
</g>
</svg>
